<svg width="4328" height="533" viewBox="0 0 4328 533" fill="none" xmlns="http://www.w3.org/2000/svg">
<g filter="url(#filter0_f_100_34)">
<path d="M0 181.783C0 181.783 202 230.777 283 241.237C318.755 245.854 493.5 223.621 539 181.783C584.5 139.945 714.5 124.029 770 105.189C825.5 86.3496 1028.5 155.91 1196 155.91C1363.5 155.909 1633.5 14 1740.5 10.5039C1847.5 7.00776 2144 190.591 2213.5 212.61C2283 234.63 3137 278.12 3250.5 181.232C3364 84.3446 3479 123.431 3570 59.5727C3661 -4.28535 4328 181.783 4328 181.783V533H0V181.783Z" fill="#223248"/>
<path d="M1742 10.0493C1709.93 11.0972 1663.21 24.5807 1609 42.9507C1609 42.9507 1626.5 38.9053 1649 42.9507C1662.92 45.4532 1657.5 72.5 1660 79.5C1662.5 86.5 1679.8 50.4669 1703 49C1726.91 47.4883 1734.5 74 1745 79.5C1755.5 85 1758.5 39 1780.5 39C1802.5 39 1878.5 49 1878.5 49C1823.42 25.7232 1774.15 8.99869 1742 10.0493Z" fill="#6F7781"/>
<path d="M3821.5 65.2665C3702.87 45.377 3601.63 37.3741 3570 59.5725C3513.95 98.9036 3448.8 99.1828 3380.5 116.233C3380.5 116.233 3434.55 111.805 3459.5 116.233C3492 122 3496.4 103.201 3540.5 109.5C3565 113 3579.48 81.5446 3603 89.5C3641.32 102.463 3643.35 86.6893 3682.5 76.5C3719 67 3821.5 65.2665 3821.5 65.2665Z" fill="#6F7781"/>
</g>
<defs>
<filter id="filter0_f_100_34" x="-10" y="0.00244141" width="4348" height="542.998" filterUnits="userSpaceOnUse" color-interpolation-filters="sRGB">
<feFlood flood-opacity="0" result="BackgroundImageFix"/>
<feBlend mode="normal" in="SourceGraphic" in2="BackgroundImageFix" result="shape"/>
<feGaussianBlur stdDeviation="5" result="effect1_foregroundBlur_100_34"/>
</filter>
</defs>
</svg>
