<svg width="4328" height="562" viewBox="0 0 4328 562" fill="none" xmlns="http://www.w3.org/2000/svg">
<g filter="url(#filter0_f_100_41)">
<path d="M0 238.5C0 238.5 320 126 338.5 90C357 54 620 140.5 662 140.5C704 140.5 805 63.1607 852.5 54C900 44.8393 1145 72.3116 1252 90C1332 103.225 1982 271.5 2021 277C2060 282.5 2475.9 -25.9999 2581 14C2686.1 53.9999 3046.5 172.5 3144.5 185.5C3242.5 198.5 4031 332.5 4121 309.5C4211 286.5 4328 238.5 4328 238.5V561.5H0V238.5Z" fill="#122032"/>
<path d="M2581 14C2546.74 0.963027 2479.47 24.9462 2403 63.0123C2403 63.0123 2435 47.9877 2454.5 53C2474 58.0123 2453.5 62.5 2468 68C2482.5 65.5 2495.5 61 2514.5 49C2533.5 37 2533 74.5 2540.5 74.5C2546.5 74.5 2549 41.5 2573.5 41.5C2598 41.5 2610.5 57 2623.5 68C2629 65.9375 2625 47.4311 2637.5 45.5C2650 43.5689 2687 51.5689 2687 51.5689C2642.44 36.4067 2605.04 23.1496 2581 14Z" fill="#2A2F36"/>
<path d="M338.5 89.9998C333.979 98.7965 311.457 112.161 280 127.335C280 127.335 326.748 113.55 334.5 112C364.5 106 375.5 142 381 139.5C388.5 136.09 390.5 115 397 109C403.5 103 444.5 132 445.5 120.5C446.5 109 443 104 448.5 100.5C454 97 498.5 103.411 498.5 103.411C422.703 85.4663 348.047 71.4224 338.5 89.9998Z" fill="#2A2F36"/>
<path d="M852.5 53.9999C836.928 57.003 815.607 67.3331 792.5 79.8636C792.5 79.8636 815.5 74.4999 833 74.4999C850.5 74.4999 872 81.4999 884 83.4999C896 85.5 927 70.3273 941.5 70.4999C956 70.6726 991.5 74.4999 1006 74.4999C1020.5 74.4999 1015 68.0852 1029 66.4999C1043 64.9147 1073.84 66.4999 1073.84 66.4999C977.249 55.9384 880.518 48.5965 852.5 53.9999Z" fill="#2A2F36"/>
</g>
<defs>
<filter id="filter0_f_100_41" x="-10" y="0.419922" width="4348" height="571.08" filterUnits="userSpaceOnUse" color-interpolation-filters="sRGB">
<feFlood flood-opacity="0" result="BackgroundImageFix"/>
<feBlend mode="normal" in="SourceGraphic" in2="BackgroundImageFix" result="shape"/>
<feGaussianBlur stdDeviation="5" result="effect1_foregroundBlur_100_41"/>
</filter>
</defs>
</svg>
