<svg width="4328" height="240" viewBox="0 0 4328 240" fill="none" xmlns="http://www.w3.org/2000/svg">
<g filter="url(#filter0_f_174_337)">
<path d="M0 36.0774C0 36.0774 202.991 17.0371 303.556 12.0279C404.12 7.01869 635.247 49.4905 726.5 52.498C817.753 55.5055 879.904 29.0639 957.5 12.0284C970.972 9.07079 998.225 2.3242 1163.5 2.0016C1317.17 1.70165 1572.38 43.595 1665.5 56.1161C1890.5 72.5015 1854.5 26.5547 2052 26.5547C2092.97 26.5547 2309.5 22.0454 2309.5 22.0454C2309.5 22.0454 2427.64 20.9036 2512.5 22.0454C2546.64 22.5048 2880.5 46.5015 2880.5 46.5015C2880.5 46.5015 3041.91 64.8291 3120.5 66.0015C3257 68.0377 3319.5 48.5015 3319.5 48.5015C3319.5 48.5015 3509.49 8.06829 3597 9.50195C3635.47 9.50195 3831.5 20.502 3831.5 20.502C3831.5 20.502 4040.32 48.2559 4097 50.502C4179 50.502 4328 36.0774 4328 36.0774V240.498H0V36.0774Z" fill="#ACC3E3"/>
<path d="M0 58.2909C0 58.2909 174.935 54.9523 275.5 50.4996C376.065 46.047 644 47.6126 732.5 57.0001C821 66.3876 885.904 49.1429 963.5 34.0001C976.972 31.3711 1047.72 23.7867 1213 23.4999C1366.67 23.2333 1562.38 45.8697 1655.5 56.9997C1880.5 71.5646 1855 55.5 2052.5 55.5C2093.47 55.5 2252.03 55.5 2293 55.5C2377.59 48.6645 2470.14 45.4851 2555 46.5C2589.14 46.9084 2842.39 53.9977 2876.5 55.5C2953.09 73.1499 3043.91 69.4579 3122.5 70.5C3259 72.31 3192.03 65.9248 3328.5 62.5C3413.01 39.7367 3517.49 28.2256 3605 29.5C3643.47 29.5 3795.79 38.4798 3834 43C3889.82 53.0291 4041.32 56.2944 4098 58.2909C4180 58.2909 4328 58.2909 4328 58.2909V240H0V58.2909Z" fill="#A1B7D7"/>
<path d="M0 102.517C0 102.517 162.435 80.3936 263 77.0002C363.565 73.6068 642.5 63.3458 731 70.5002C819.5 77.6546 905.404 65.5406 983 54C996.472 51.9964 1072.72 49.7188 1238 49.5003C1391.67 49.2971 1567.88 63.0176 1661 71.5C1886 82.6001 1855 83 2052.5 83C2093.47 83 2294.53 93.5308 2335.5 93.5308C2420.09 88.3213 2581.14 83.2265 2666 84C2700.14 84.3112 2950.89 92.3551 2985 93.5C3061.59 106.951 3109.41 92.7058 3188 93.5C3324.5 94.8794 3237.53 84.6101 3374 82C3458.51 64.6517 3543.49 71.5288 3631 72.5C3669.47 72.5 3827.29 76.055 3865.5 79.5C3921.32 87.1433 4051.32 89.4784 4108 91C4190 91 4328 102.517 4328 102.517V241H0V102.517Z" fill="#98AFD0"/>
<path d="M0 191.826C0 191.826 200.935 207.705 301.5 206.5C402.065 205.295 654 189.286 742.5 191.826C831 194.367 926.404 195.924 1004 191.826C1017.47 191.115 1091.72 191.904 1257 191.826C1410.67 191.754 1567.38 203.488 1660.5 206.5C1885.5 210.442 1891 191.826 2088.5 191.826C2129.47 191.826 2313.53 191.826 2354.5 191.826C2439.09 189.977 2642.14 191.552 2727 191.826C2761.14 191.937 2991.89 206.094 3026 206.5C3102.59 211.277 3128.91 206.218 3207.5 206.5C3344 206.99 3299.03 192.753 3435.5 191.826C3520.01 185.666 3584.49 191.481 3672 191.826C3710.47 191.826 3861.79 205.277 3900 206.5C3955.82 209.214 4082.82 191.286 4139.5 191.826C4221.5 191.826 4328 191.826 4328 191.826V241H0V191.826Z" fill="#91A9CA"/>
</g>
<defs>
<filter id="filter0_f_174_337" x="-2" y="0" width="4332" height="243" filterUnits="userSpaceOnUse" color-interpolation-filters="sRGB">
<feFlood flood-opacity="0" result="BackgroundImageFix"/>
<feBlend mode="normal" in="SourceGraphic" in2="BackgroundImageFix" result="shape"/>
<feGaussianBlur stdDeviation="1" result="effect1_foregroundBlur_174_337"/>
</filter>
</defs>
</svg>
